<?xml version="1.0" encoding="UTF-8"?><svg width="446px" height="230px" viewBox="0 0 446 230" version="1.1" xmlns="http://www.w3.org/2000/svg" xmlns:xlink="http://www.w3.org/1999/xlink"><!-- Generator: Sketch 53.2 (72643) - https://sketchapp.com --><title>1_tech-interv</title><desc>Created with Sketch.</desc><g id="Page-1" stroke="none" stroke-width="1" fill="none" fill-rule="evenodd"><g id="1_tech-interv"><g id="Box_2_" transform="translate(238.000000, 28.000000)" fill-rule="nonzero"><rect id="Rectangle" fill="#007836" x="51.8" y="0.5" width="103.8" height="14.4"></rect><rect id="Rectangle" fill="#3FB498" x="51.8" y="0.5" width="103.8" height="157.5"></rect><rect id="Rectangle" fill="#BBDECF" x="53.4" y="17.6" width="50.3" height="133.4"></rect><rect id="Rectangle" fill="#9D9D9C" x="58.1" y="21.6" width="45.7" height="129.4"></rect><g id="Wires_2_" transform="translate(63.000000, 29.000000)"><g id="Group" fill="#575756"><g id="Path"><path d="M2.3,1.7 C2.3,2.2 1.9,2.6 1.4,2.6 C0.9,2.6 0.5,2.2 0.5,1.7 C0.5,1.2 0.9,0.8 1.4,0.8 C1.9,0.8 2.3,1.2 2.3,1.7 Z"></path><path d="M7.4,1.7 C7.4,2.2 7,2.6 6.5,2.6 C6,2.6 5.6,2.2 5.6,1.7 C5.6,1.2 6,0.8 6.5,0.8 C7.1,0.8 7.4,1.2 7.4,1.7 Z"></path><path d="M12.6,1.7 C12.6,2.2 12.2,2.6 11.7,2.6 C11.2,2.6 10.8,2.2 10.8,1.7 C10.8,1.2 11.2,0.8 11.7,0.8 C12.2,0.8 12.6,1.2 12.6,1.7 Z"></path><path d="M17.7,1.7 C17.7,2.2 17.3,2.6 16.8,2.6 C16.3,2.6 15.9,2.2 15.9,1.7 C15.9,1.2 16.3,0.8 16.8,0.8 C17.3,0.8 17.7,1.2 17.7,1.7 Z"></path><path d="M22.8,1.7 C22.8,2.2 22.4,2.6 21.9,2.6 C21.4,2.6 21,2.2 21,1.7 C21,1.2 21.4,0.8 21.9,0.8 C22.5,0.8 22.8,1.2 22.8,1.7 Z"></path><path d="M28,1.7 C28,2.2 27.6,2.6 27.1,2.6 C26.6,2.6 26.2,2.2 26.2,1.7 C26.2,1.2 26.6,0.8 27.1,0.8 C27.6,0.8 28,1.2 28,1.7 Z"></path><path d="M33.1,1.7 C33.1,2.2 32.7,2.6 32.2,2.6 C31.7,2.6 31.3,2.2 31.3,1.7 C31.3,1.2 31.7,0.8 32.2,0.8 C32.7,0.8 33.1,1.2 33.1,1.7 Z"></path><path d="M38.2,1.7 C38.2,2.2 37.8,2.6 37.3,2.6 C36.8,2.6 36.4,2.2 36.4,1.7 C36.4,1.2 36.8,0.8 37.3,0.8 C37.9,0.8 38.2,1.2 38.2,1.7 Z"></path></g><g transform="translate(0.000000, 5.000000)"><path d="M2.3,1.7 C2.3,2.2 1.9,2.6 1.4,2.6 C0.9,2.6 0.5,2.2 0.5,1.7 C0.5,1.2 0.9,0.8 1.4,0.8 C1.9,0.8 2.3,1.2 2.3,1.7 Z" id="Path"></path><circle id="Oval" cx="6.6" cy="1.7" r="1"></circle><circle id="Oval" cx="11.7" cy="1.7" r="1"></circle><circle id="Oval" cx="16.9" cy="1.7" r="1"></circle><path d="M22.8,1.7 C22.8,2.2 22.4,2.6 21.9,2.6 C21.4,2.6 21,2.2 21,1.7 C21,1.2 21.4,0.8 21.9,0.8 C22.5,0.8 22.8,1.2 22.8,1.7 Z" id="Path"></path><circle id="Oval" cx="27.1" cy="1.7" r="1"></circle><circle id="Oval" cx="32.2" cy="1.7" r="1"></circle><path d="M38.2,1.7 C38.2,2.2 37.8,2.6 37.3,2.6 C36.8,2.6 36.4,2.2 36.4,1.7 C36.4,1.2 36.8,0.8 37.3,0.8 C37.9,0.8 38.2,1.2 38.2,1.7 Z" id="Path"></path></g><g transform="translate(0.000000, 10.000000)" id="Path"><path d="M2.3,1.7 C2.3,2.2 1.9,2.6 1.4,2.6 C0.9,2.6 0.5,2.2 0.5,1.7 C0.5,1.2 0.9,0.8 1.4,0.8 C1.9,0.9 2.3,1.2 2.3,1.7 Z"></path><path d="M7.4,1.7 C7.4,2.2 7,2.6 6.5,2.6 C6,2.6 5.6,2.2 5.6,1.7 C5.6,1.2 6,0.8 6.5,0.8 C7.1,0.9 7.4,1.2 7.4,1.7 Z"></path><path d="M12.6,1.7 C12.6,2.2 12.2,2.6 11.7,2.6 C11.2,2.6 10.8,2.2 10.8,1.7 C10.8,1.2 11.2,0.8 11.7,0.8 C12.2,0.9 12.6,1.2 12.6,1.7 Z"></path><path d="M17.7,1.7 C17.7,2.2 17.3,2.6 16.8,2.6 C16.3,2.6 15.9,2.2 15.9,1.7 C15.9,1.2 16.3,0.8 16.8,0.8 C17.3,0.9 17.7,1.2 17.7,1.7 Z"></path><path d="M22.8,1.7 C22.8,2.2 22.4,2.6 21.9,2.6 C21.4,2.6 21,2.2 21,1.7 C21,1.2 21.4,0.8 21.9,0.8 C22.5,0.9 22.8,1.2 22.8,1.7 Z"></path><path d="M28,1.7 C28,2.2 27.6,2.6 27.1,2.6 C26.6,2.6 26.2,2.2 26.2,1.7 C26.2,1.2 26.6,0.8 27.1,0.8 C27.6,0.9 28,1.2 28,1.7 Z"></path><path d="M33.1,1.7 C33.1,2.2 32.7,2.6 32.2,2.6 C31.7,2.6 31.3,2.2 31.3,1.7 C31.3,1.2 31.7,0.8 32.2,0.8 C32.7,0.9 33.1,1.2 33.1,1.7 Z"></path><path d="M38.2,1.7 C38.2,2.2 37.8,2.6 37.3,2.6 C36.8,2.6 36.4,2.2 36.4,1.7 C36.4,1.2 36.8,0.8 37.3,0.8 C37.9,0.9 38.2,1.2 38.2,1.7 Z"></path></g><g transform="translate(0.000000, 15.000000)"><path d="M2.3,1.7 C2.3,2.2 1.9,2.6 1.4,2.6 C0.9,2.6 0.5,2.2 0.5,1.7 C0.5,1.2 0.9,0.8 1.4,0.8 C1.9,0.9 2.3,1.3 2.3,1.7 Z" id="Path"></path><circle id="Oval" cx="6.6" cy="1.7" r="1"></circle><circle id="Oval" cx="11.7" cy="1.7" r="1"></circle><circle id="Oval" cx="16.9" cy="1.7" r="1"></circle><path d="M22.8,1.7 C22.8,2.2 22.4,2.6 21.9,2.6 C21.4,2.6 21,2.2 21,1.7 C21,1.2 21.4,0.8 21.9,0.8 C22.5,0.9 22.8,1.3 22.8,1.7 Z" id="Path"></path><circle id="Oval" cx="27.1" cy="1.7" r="1"></circle><circle id="Oval" cx="32.2" cy="1.7" r="1"></circle><path d="M38.2,1.7 C38.2,2.2 37.8,2.6 37.3,2.6 C36.8,2.6 36.4,2.2 36.4,1.7 C36.4,1.2 36.8,0.8 37.3,0.8 C37.9,0.9 38.2,1.3 38.2,1.7 Z" id="Path"></path></g><g transform="translate(0.000000, 20.000000)"><path d="M2.3,1.8 C2.3,2.3 1.9,2.7 1.4,2.7 C0.9,2.7 0.5,2.3 0.5,1.8 C0.5,1.3 0.9,0.9 1.4,0.9 C1.9,0.9 2.3,1.3 2.3,1.8 Z" id="Path"></path><circle id="Oval" cx="6.6" cy="1.8" r="1"></circle><circle id="Oval" cx="11.7" cy="1.8" r="1"></circle><circle id="Oval" cx="16.9" cy="1.8" r="1"></circle><path d="M22.8,1.8 C22.8,2.3 22.4,2.7 21.9,2.7 C21.4,2.7 21,2.3 21,1.8 C21,1.3 21.4,0.9 21.9,0.9 C22.5,0.9 22.8,1.3 22.8,1.8 Z" id="Path"></path><circle id="Oval" cx="27.1" cy="1.8" r="1"></circle><circle id="Oval" cx="32.2" cy="1.8" r="1"></circle><path d="M38.2,1.8 C38.2,2.3 37.8,2.7 37.3,2.7 C36.8,2.7 36.4,2.3 36.4,1.8 C36.4,1.3 36.8,0.9 37.3,0.9 C37.9,0.9 38.2,1.3 38.2,1.8 Z" id="Path"></path></g><g transform="translate(0.000000, 25.000000)" id="Path"><path d="M2.3,1.8 C2.3,2.3 1.9,2.7 1.4,2.7 C0.9,2.7 0.5,2.3 0.5,1.8 C0.5,1.3 0.9,0.9 1.4,0.9 C1.9,0.9 2.3,1.3 2.3,1.8 Z"></path><path d="M7.4,1.8 C7.4,2.3 7,2.7 6.5,2.7 C6,2.7 5.6,2.3 5.6,1.8 C5.6,1.3 6,0.9 6.5,0.9 C7.1,0.9 7.4,1.3 7.4,1.8 Z"></path><path d="M12.6,1.8 C12.6,2.3 12.2,2.7 11.7,2.7 C11.2,2.7 10.8,2.3 10.8,1.8 C10.8,1.3 11.2,0.9 11.7,0.9 C12.2,0.9 12.6,1.3 12.6,1.8 Z"></path><path d="M17.7,1.8 C17.7,2.3 17.3,2.7 16.8,2.7 C16.3,2.7 15.9,2.3 15.9,1.8 C15.9,1.3 16.3,0.9 16.8,0.9 C17.3,0.9 17.7,1.3 17.7,1.8 Z"></path><path d="M22.8,1.8 C22.8,2.3 22.4,2.7 21.9,2.7 C21.4,2.7 21,2.3 21,1.8 C21,1.3 21.4,0.9 21.9,0.9 C22.5,0.9 22.8,1.3 22.8,1.8 Z"></path><path d="M28,1.8 C28,2.3 27.6,2.7 27.1,2.7 C26.6,2.7 26.2,2.3 26.2,1.8 C26.2,1.3 26.6,0.9 27.1,0.9 C27.6,0.9 28,1.3 28,1.8 Z"></path><path d="M33.1,1.8 C33.1,2.3 32.7,2.7 32.2,2.7 C31.7,2.7 31.3,2.3 31.3,1.8 C31.3,1.3 31.7,0.9 32.2,0.9 C32.7,0.9 33.1,1.3 33.1,1.8 Z"></path><path d="M38.2,1.8 C38.2,2.3 37.8,2.7 37.3,2.7 C36.8,2.7 36.4,2.3 36.4,1.8 C36.4,1.3 36.8,0.9 37.3,0.9 C37.9,0.9 38.2,1.3 38.2,1.8 Z"></path></g><g transform="translate(0.000000, 30.000000)"><path d="M2.3,1.8 C2.3,2.3 1.9,2.7 1.4,2.7 C0.9,2.7 0.5,2.3 0.5,1.8 C0.5,1.3 0.9,0.9 1.4,0.9 C1.9,0.9 2.3,1.3 2.3,1.8 Z" id="Path"></path><circle id="Oval" cx="6.6" cy="1.8" r="1"></circle><circle id="Oval" cx="11.7" cy="1.8" r="1"></circle><circle id="Oval" cx="16.9" cy="1.8" r="1"></circle><path d="M22.8,1.8 C22.8,2.3 22.4,2.7 21.9,2.7 C21.4,2.7 21,2.3 21,1.8 C21,1.3 21.4,0.9 21.9,0.9 C22.5,0.9 22.8,1.3 22.8,1.8 Z" id="Path"></path><circle id="Oval" cx="27.1" cy="1.8" r="1"></circle><circle id="Oval" cx="32.2" cy="1.8" r="1"></circle><path d="M38.2,1.8 C38.2,2.3 37.8,2.7 37.3,2.7 C36.8,2.7 36.4,2.3 36.4,1.8 C36.4,1.3 36.8,0.9 37.3,0.9 C37.9,0.9 38.2,1.3 38.2,1.8 Z" id="Path"></path></g><g transform="translate(0.000000, 35.000000)" id="Path"><path d="M2.3,1.8 C2.3,2.3 1.9,2.7 1.4,2.7 C0.9,2.7 0.5,2.3 0.5,1.8 C0.5,1.3 0.9,0.9 1.4,0.9 C1.9,1 2.3,1.3 2.3,1.8 Z"></path><path d="M7.4,1.8 C7.4,2.3 7,2.7 6.5,2.7 C6,2.7 5.6,2.3 5.6,1.8 C5.6,1.3 6,0.9 6.5,0.9 C7.1,1 7.4,1.3 7.4,1.8 Z"></path><path d="M12.6,1.8 C12.6,2.3 12.2,2.7 11.7,2.7 C11.2,2.7 10.8,2.3 10.8,1.8 C10.8,1.3 11.2,0.9 11.7,0.9 C12.2,1 12.6,1.3 12.6,1.8 Z"></path><path d="M17.7,1.8 C17.7,2.3 17.3,2.7 16.8,2.7 C16.3,2.7 15.9,2.3 15.9,1.8 C15.9,1.3 16.3,0.9 16.8,0.9 C17.3,1 17.7,1.3 17.7,1.8 Z"></path><path d="M22.8,1.8 C22.8,2.3 22.4,2.7 21.9,2.7 C21.4,2.7 21,2.3 21,1.8 C21,1.3 21.4,0.9 21.9,0.9 C22.5,1 22.8,1.3 22.8,1.8 Z"></path><path d="M28,1.8 C28,2.3 27.6,2.7 27.1,2.7 C26.6,2.7 26.2,2.3 26.2,1.8 C26.2,1.3 26.6,0.9 27.1,0.9 C27.6,1 28,1.3 28,1.8 Z"></path><path d="M33.1,1.8 C33.1,2.3 32.7,2.7 32.2,2.7 C31.7,2.7 31.3,2.3 31.3,1.8 C31.3,1.3 31.7,0.9 32.2,0.9 C32.7,1 33.1,1.3 33.1,1.8 Z"></path><path d="M38.2,1.8 C38.2,2.3 37.8,2.7 37.3,2.7 C36.8,2.7 36.4,2.3 36.4,1.8 C36.4,1.3 36.8,0.9 37.3,0.9 C37.9,1 38.2,1.3 38.2,1.8 Z"></path></g><g transform="translate(0.000000, 40.000000)"><path d="M2.3,1.8 C2.3,2.3 1.9,2.7 1.4,2.7 C0.9,2.7 0.5,2.3 0.5,1.8 C0.5,1.3 0.9,0.9 1.4,0.9 C1.9,1 2.3,1.4 2.3,1.8 Z" id="Path"></path><circle id="Oval" cx="6.6" cy="1.8" r="1"></circle><circle id="Oval" cx="11.7" cy="1.8" r="1"></circle><circle id="Oval" cx="16.9" cy="1.8" r="1"></circle><path d="M22.8,1.8 C22.8,2.3 22.4,2.7 21.9,2.7 C21.4,2.7 21,2.3 21,1.8 C21,1.3 21.4,0.9 21.9,0.9 C22.5,1 22.8,1.4 22.8,1.8 Z" id="Path"></path><circle id="Oval" cx="27.1" cy="1.8" r="1"></circle><circle id="Oval" cx="32.2" cy="1.8" r="1"></circle><path d="M38.2,1.8 C38.2,2.3 37.8,2.7 37.3,2.7 C36.8,2.7 36.4,2.3 36.4,1.8 C36.4,1.3 36.8,0.9 37.3,0.9 C37.9,1 38.2,1.4 38.2,1.8 Z" id="Path"></path></g><g transform="translate(0.000000, 46.000000)"><path d="M2.3,0.9 C2.3,1.4 1.9,1.8 1.4,1.8 C0.9,1.8 0.5,1.4 0.5,0.9 C0.5,0.4 0.9,0 1.4,0 C1.9,0 2.3,0.4 2.3,0.9 Z" id="Path"></path><circle id="Oval" cx="6.6" cy="0.9" r="1"></circle><circle id="Oval" cx="11.7" cy="0.9" r="1"></circle><circle id="Oval" cx="16.9" cy="0.9" r="1"></circle><path d="M22.8,0.9 C22.8,1.4 22.4,1.8 21.9,1.8 C21.4,1.8 21,1.4 21,0.9 C21,0.4 21.4,0 21.9,0 C22.5,0 22.8,0.4 22.8,0.9 Z" id="Path"></path><circle id="Oval" cx="27.1" cy="0.9" r="1"></circle><circle id="Oval" cx="32.2" cy="0.9" r="1"></circle><path d="M38.2,0.9 C38.2,1.4 37.8,1.8 37.3,1.8 C36.8,1.8 36.4,1.4 36.4,0.9 C36.4,0.4 36.8,0 37.3,0 C37.9,0 38.2,0.4 38.2,0.9 Z" id="Path"></path></g><g transform="translate(0.000000, 51.000000)"><path d="M2.3,0.9 C2.3,1.4 1.9,1.8 1.4,1.8 C0.9,1.8 0.5,1.4 0.5,0.9 C0.5,0.4 0.9,0 1.4,0 C1.9,0 2.3,0.4 2.3,0.9 Z" id="Path"></path><circle id="Oval" cx="6.6" cy="0.9" r="1"></circle><circle id="Oval" cx="11.7" cy="0.9" r="1"></circle><circle id="Oval" cx="16.9" cy="0.9" r="1"></circle><path d="M22.8,0.9 C22.8,1.4 22.4,1.8 21.9,1.8 C21.4,1.8 21,1.4 21,0.9 C21,0.4 21.4,0 21.9,0 C22.5,0 22.8,0.4 22.8,0.9 Z" id="Path"></path><circle id="Oval" cx="27.1" cy="0.9" r="1"></circle><circle id="Oval" cx="32.2" cy="0.9" r="1"></circle><path d="M38.2,0.9 C38.2,1.4 37.8,1.8 37.3,1.8 C36.8,1.8 36.4,1.4 36.4,0.9 C36.4,0.4 36.8,0 37.3,0 C37.9,0 38.2,0.4 38.2,0.9 Z" id="Path"></path></g><g transform="translate(0.000000, 56.000000)"><path d="M2.3,0.9 C2.3,1.4 1.9,1.8 1.4,1.8 C0.9,1.8 0.5,1.4 0.5,0.9 C0.5,0.4 0.9,0 1.4,0 C1.9,0 2.3,0.4 2.3,0.9 Z" id="Path"></path><circle id="Oval" cx="6.6" cy="0.9" r="1"></circle><circle id="Oval" cx="11.7" cy="0.9" r="1"></circle><circle id="Oval" cx="16.9" cy="0.9" r="1"></circle><path d="M22.8,0.9 C22.8,1.4 22.4,1.8 21.9,1.8 C21.4,1.8 21,1.4 21,0.9 C21,0.4 21.4,0 21.9,0 C22.5,0 22.8,0.4 22.8,0.9 Z" id="Path"></path><circle id="Oval" cx="27.1" cy="0.9" r="1"></circle><circle id="Oval" cx="32.2" cy="0.9" r="1"></circle><path d="M38.2,0.9 C38.2,1.4 37.8,1.8 37.3,1.8 C36.8,1.8 36.4,1.4 36.4,0.9 C36.4,0.4 36.8,0 37.3,0 C37.9,0 38.2,0.4 38.2,0.9 Z" id="Path"></path></g><g transform="translate(0.000000, 61.000000)" id="Path"><path d="M2.3,0.9 C2.3,1.4 1.9,1.8 1.4,1.8 C0.9,1.8 0.5,1.4 0.5,0.9 C0.5,0.4 0.9,0 1.4,0 C1.9,0.1 2.3,0.4 2.3,0.9 Z"></path><path d="M7.4,0.9 C7.4,1.4 7,1.8 6.5,1.8 C6,1.8 5.6,1.4 5.6,0.9 C5.6,0.4 6,0 6.5,0 C7.1,0.1 7.4,0.4 7.4,0.9 Z"></path><path d="M12.6,0.9 C12.6,1.4 12.2,1.8 11.7,1.8 C11.2,1.8 10.8,1.4 10.8,0.9 C10.8,0.4 11.2,0 11.7,0 C12.2,0.1 12.6,0.4 12.6,0.9 Z"></path><path d="M17.7,0.9 C17.7,1.4 17.3,1.8 16.8,1.8 C16.3,1.8 15.9,1.4 15.9,0.9 C15.9,0.4 16.3,0 16.8,0 C17.3,0.1 17.7,0.4 17.7,0.9 Z"></path><path d="M22.8,0.9 C22.8,1.4 22.4,1.8 21.9,1.8 C21.4,1.8 21,1.4 21,0.9 C21,0.4 21.4,0 21.9,0 C22.5,0.1 22.8,0.4 22.8,0.9 Z"></path><path d="M28,0.9 C28,1.4 27.6,1.8 27.1,1.8 C26.6,1.8 26.2,1.4 26.2,0.9 C26.2,0.4 26.6,0 27.1,0 C27.6,0.1 28,0.4 28,0.9 Z"></path><path d="M33.1,0.9 C33.1,1.4 32.7,1.8 32.2,1.8 C31.7,1.8 31.3,1.4 31.3,0.9 C31.3,0.4 31.7,0 32.2,0 C32.7,0.1 33.1,0.4 33.1,0.9 Z"></path><path d="M38.2,0.9 C38.2,1.4 37.8,1.8 37.3,1.8 C36.8,1.8 36.4,1.4 36.4,0.9 C36.4,0.4 36.8,0 37.3,0 C37.9,0.1 38.2,0.4 38.2,0.9 Z"></path></g><g transform="translate(0.000000, 66.000000)"><path d="M2.3,0.9 C2.3,1.4 1.9,1.8 1.4,1.8 C0.9,1.8 0.5,1.4 0.5,0.9 C0.5,0.4 0.9,0 1.4,0 C1.9,0.1 2.3,0.5 2.3,0.9 Z" id="Path"></path><circle id="Oval" cx="6.6" cy="0.9" r="1"></circle><circle id="Oval" cx="11.7" cy="0.9" r="1"></circle><circle id="Oval" cx="16.9" cy="0.9" r="1"></circle><path d="M22.8,0.9 C22.8,1.4 22.4,1.8 21.9,1.8 C21.4,1.8 21,1.4 21,0.9 C21,0.4 21.4,0 21.9,0 C22.5,0.1 22.8,0.5 22.8,0.9 Z" id="Path"></path><circle id="Oval" cx="27.1" cy="0.9" r="1"></circle><circle id="Oval" cx="32.2" cy="0.9" r="1"></circle><path d="M38.2,0.9 C38.2,1.4 37.8,1.8 37.3,1.8 C36.8,1.8 36.4,1.4 36.4,0.9 C36.4,0.4 36.8,0 37.3,0 C37.9,0.1 38.2,0.5 38.2,0.9 Z" id="Path"></path></g><g transform="translate(0.000000, 71.000000)" id="Path"><path d="M2.3,1 C2.3,1.5 1.9,1.9 1.4,1.9 C0.9,1.9 0.5,1.5 0.5,1 C0.5,0.5 0.9,0.1 1.4,0.1 C1.9,0.1 2.3,0.5 2.3,1 Z"></path><path d="M7.4,1 C7.4,1.5 7,1.9 6.5,1.9 C6,1.9 5.6,1.5 5.6,1 C5.6,0.5 6,0.1 6.5,0.1 C7.1,0.1 7.4,0.5 7.4,1 Z"></path><path d="M12.6,1 C12.6,1.5 12.2,1.9 11.7,1.9 C11.2,1.9 10.8,1.5 10.8,1 C10.8,0.5 11.2,0.1 11.7,0.1 C12.2,0.1 12.6,0.5 12.6,1 Z"></path><path d="M17.7,1 C17.7,1.5 17.3,1.9 16.8,1.9 C16.3,1.9 15.9,1.5 15.9,1 C15.9,0.5 16.3,0.1 16.8,0.1 C17.3,0.1 17.7,0.5 17.7,1 Z"></path><path d="M22.8,1 C22.8,1.5 22.4,1.9 21.9,1.9 C21.4,1.9 21,1.5 21,1 C21,0.5 21.4,0.1 21.9,0.1 C22.5,0.1 22.8,0.5 22.8,1 Z"></path><path d="M28,1 C28,1.5 27.6,1.9 27.1,1.9 C26.6,1.9 26.2,1.5 26.2,1 C26.2,0.5 26.6,0.1 27.1,0.1 C27.6,0.1 28,0.5 28,1 Z"></path><path d="M33.1,1 C33.1,1.5 32.7,1.9 32.2,1.9 C31.7,1.9 31.3,1.5 31.3,1 C31.3,0.5 31.7,0.1 32.2,0.1 C32.7,0.1 33.1,0.5 33.1,1 Z"></path><path d="M38.2,1 C38.2,1.5 37.8,1.9 37.3,1.9 C36.8,1.9 36.4,1.5 36.4,1 C36.4,0.5 36.8,0.1 37.3,0.1 C37.9,0.1 38.2,0.5 38.2,1 Z"></path></g><g transform="translate(0.000000, 76.000000)"><path d="M2.3,1 C2.3,1.5 1.9,1.9 1.4,1.9 C0.9,1.9 0.5,1.5 0.5,1 C0.5,0.5 0.9,0.1 1.4,0.1 C1.9,0.1 2.3,0.5 2.3,1 Z" id="Path"></path><circle id="Oval" cx="6.6" cy="1" r="1"></circle><circle id="Oval" cx="11.7" cy="1" r="1"></circle><circle id="Oval" cx="16.9" cy="1" r="1"></circle><path d="M22.8,1 C22.8,1.5 22.4,1.9 21.9,1.9 C21.4,1.9 21,1.5 21,1 C21,0.5 21.4,0.1 21.9,0.1 C22.5,0.1 22.8,0.5 22.8,1 Z" id="Path"></path><circle id="Oval" cx="27.1" cy="1" r="1"></circle><circle id="Oval" cx="32.2" cy="1" r="1"></circle><path d="M38.2,1 C38.2,1.5 37.8,1.9 37.3,1.9 C36.8,1.9 36.4,1.5 36.4,1 C36.4,0.5 36.8,0.1 37.3,0.1 C37.9,0.1 38.2,0.5 38.2,1 Z" id="Path"></path></g><g transform="translate(0.000000, 81.000000)"><path d="M2.3,1 C2.3,1.5 1.9,1.9 1.4,1.9 C0.9,1.9 0.5,1.5 0.5,1 C0.5,0.5 0.9,0.1 1.4,0.1 C1.9,0.1 2.3,0.5 2.3,1 Z" id="Path"></path><circle id="Oval" cx="6.6" cy="1" r="1"></circle><circle id="Oval" cx="11.7" cy="1" r="1"></circle><circle id="Oval" cx="16.9" cy="1" r="1"></circle><path d="M22.8,1 C22.8,1.5 22.4,1.9 21.9,1.9 C21.4,1.9 21,1.5 21,1 C21,0.5 21.4,0.1 21.9,0.1 C22.5,0.1 22.8,0.5 22.8,1 Z" id="Path"></path><circle id="Oval" cx="27.1" cy="1" r="1"></circle><circle id="Oval" cx="32.2" cy="1" r="1"></circle><path d="M38.2,1 C38.2,1.5 37.8,1.9 37.3,1.9 C36.8,1.9 36.4,1.5 36.4,1 C36.4,0.5 36.8,0.1 37.3,0.1 C37.9,0.1 38.2,0.5 38.2,1 Z" id="Path"></path></g><g transform="translate(0.000000, 86.000000)" id="Path"><path d="M2.3,1 C2.3,1.5 1.9,1.9 1.4,1.9 C0.9,1.9 0.5,1.5 0.5,1 C0.5,0.5 0.9,0.1 1.4,0.1 C1.9,0.2 2.3,0.5 2.3,1 Z"></path><path d="M7.4,1 C7.4,1.5 7,1.9 6.5,1.9 C6,1.9 5.6,1.5 5.6,1 C5.6,0.5 6,0.1 6.5,0.1 C7.1,0.2 7.4,0.5 7.4,1 Z"></path><path d="M12.6,1 C12.6,1.5 12.2,1.9 11.7,1.9 C11.2,1.9 10.8,1.5 10.8,1 C10.8,0.5 11.2,0.1 11.7,0.1 C12.2,0.2 12.6,0.5 12.6,1 Z"></path><path d="M17.7,1 C17.7,1.5 17.3,1.9 16.8,1.9 C16.3,1.9 15.9,1.5 15.9,1 C15.9,0.5 16.3,0.1 16.8,0.1 C17.3,0.2 17.7,0.5 17.7,1 Z"></path><path d="M22.8,1 C22.8,1.5 22.4,1.9 21.9,1.9 C21.4,1.9 21,1.5 21,1 C21,0.5 21.4,0.1 21.9,0.1 C22.5,0.2 22.8,0.5 22.8,1 Z"></path><path d="M28,1 C28,1.5 27.6,1.9 27.1,1.9 C26.6,1.9 26.2,1.5 26.2,1 C26.2,0.5 26.6,0.1 27.1,0.1 C27.6,0.2 28,0.5 28,1 Z"></path><path d="M33.1,1 C33.1,1.5 32.7,1.9 32.2,1.9 C31.7,1.9 31.3,1.5 31.3,1 C31.3,0.5 31.7,0.1 32.2,0.1 C32.7,0.2 33.1,0.5 33.1,1 Z"></path><path d="M38.2,1 C38.2,1.5 37.8,1.9 37.3,1.9 C36.8,1.9 36.4,1.5 36.4,1 C36.4,0.5 36.8,0.1 37.3,0.1 C37.9,0.2 38.2,0.5 38.2,1 Z"></path></g><g transform="translate(0.000000, 91.000000)"><path d="M2.3,1 C2.3,1.5 1.9,1.9 1.4,1.9 C0.9,1.9 0.5,1.5 0.5,1 C0.5,0.5 0.9,0.1 1.4,0.1 C1.9,0.2 2.3,0.6 2.3,1 Z" id="Path"></path><circle id="Oval" cx="6.6" cy="1" r="1"></circle><circle id="Oval" cx="11.7" cy="1" r="1"></circle><circle id="Oval" cx="16.9" cy="1" r="1"></circle><path d="M22.8,1 C22.8,1.5 22.4,1.9 21.9,1.9 C21.4,1.9 21,1.5 21,1 C21,0.5 21.4,0.1 21.9,0.1 C22.5,0.2 22.8,0.6 22.8,1 Z" id="Path"></path><circle id="Oval" cx="27.1" cy="1" r="1"></circle><circle id="Oval" cx="32.2" cy="1" r="1"></circle><path d="M38.2,1 C38.2,1.5 37.8,1.9 37.3,1.9 C36.8,1.9 36.4,1.5 36.4,1 C36.4,0.5 36.8,0.1 37.3,0.1 C37.9,0.2 38.2,0.6 38.2,1 Z" id="Path"></path></g></g><path d="M16.9,17.5 C0.9,17.5 0.8,1.9 0.8,1.7 C0.8,1.3 1.1,1 1.5,1 L1.5,1 C1.9,1 2.2,1.3 2.2,1.7 C2.2,2.3 2.4,16 16.9,16 C17.3,16 17.6,16.3 17.6,16.7 C17.6,17.1 17.3,17.5 16.9,17.5 Z" id="Path" fill="#FFE900"></path><path d="M16.9,22.5 C16.5,22.5 16.2,22.2 16.2,21.8 C16.2,17.1 17.6,13.3 20.4,10.5 C25.1,5.9 32,5.9 32.3,6 C32.7,6 33,6.3 33,6.8 C33,7.2 32.7,7.5 32.3,7.5 C32.3,7.5 32.3,7.5 32.2,7.5 C31.6,7.5 25.5,7.6 21.4,11.6 C18.9,14 17.6,17.5 17.6,21.8 C17.6,22.2 17.3,22.5 16.9,22.5 Z" id="Path" fill="#F5B5D2"></path><path d="M6.6,37.6 C6.2,37.6 5.9,37.3 5.9,36.9 L5.9,21.8 C5.9,21.4 6.2,21.1 6.6,21.1 C7,21.1 7.3,21.4 7.3,21.8 L7.3,36.9 C7.3,37.2 7,37.6 6.6,37.6 Z" id="Path" fill="#D6C1DF"></path><path d="M16.9,37.6 C4.5,37.6 0.8,27.2 0.8,27.1 C0.7,26.7 0.9,26.3 1.3,26.2 C1.7,26.1 2.1,26.3 2.2,26.7 C2.3,27.1 5.6,36.2 16.9,36.2 C17.3,36.2 17.6,36.5 17.6,36.9 C17.6,37.2 17.3,37.6 16.9,37.6 Z" id="Path" fill="#3FB498"></path><path d="M1.5,92.8 C1.1,92.8 0.8,92.5 0.8,92.1 L0.8,82.1 C0.8,81.7 1.1,81.4 1.5,81.4 C1.9,81.4 2.2,81.7 2.2,82.1 L2.2,92.1 C2.2,92.4 1.9,92.8 1.5,92.8 Z" id="Path" fill="#3FB498"></path><path d="M6.6,92.8 C6.2,92.8 5.9,92.5 5.9,92.1 L5.9,82.1 C5.9,81.7 6.2,81.4 6.6,81.4 C7,81.4 7.3,81.7 7.3,82.1 L7.3,92.1 C7.3,92.4 7,92.8 6.6,92.8 Z" id="Path" fill="#F5B5D2"></path><path d="M11.7,92.8 C11.3,92.8 11,92.5 11,92.1 L11,82.1 C11,81.7 11.3,81.4 11.7,81.4 C12.1,81.4 12.4,81.7 12.4,82.1 L12.4,92.1 C12.5,92.4 12.1,92.8 11.7,92.8 Z" id="Path" fill="#6AC5F0"></path><path d="M16.9,92.8 C16.5,92.8 16.2,92.5 16.2,92.1 L16.2,82.1 C16.2,81.7 16.5,81.4 16.9,81.4 C17.3,81.4 17.6,81.7 17.6,82.1 L17.6,92.1 C17.6,92.4 17.3,92.8 16.9,92.8 Z" id="Path" fill="#FFE900"></path><path d="M22,27.5 C21.6,27.5 21.3,27.2 21.3,26.8 C21.3,13.8 11.8,12.5 11.7,12.5 C11.3,12.5 11,12.1 11.1,11.7 C11.2,11.3 11.5,11 11.9,11.1 C12,11.1 22.8,12.6 22.8,26.9 C22.7,27.2 22.4,27.5 22,27.5 Z" id="Path" fill="#F5B5D2"></path><path d="M27.1,57.6 C22.3,57.6 18.4,56.2 15.6,53.3 C11,48.7 11,42 11,41.7 C11,41.3 11.3,41 11.7,41 C11.7,41 11.7,41 11.7,41 C12.1,41 12.4,41.3 12.4,41.7 C12.4,41.8 12.4,48 16.6,52.2 C19.1,54.7 22.6,56 27.1,56 C27.5,56 27.8,56.3 27.8,56.7 C27.8,57.1 27.5,57.6 27.1,57.6 Z" id="Path" fill="#8871B1"></path><path d="M11.7,57.6 C11.3,57.6 11,57.3 11,56.9 C11,56.5 11.3,56.2 11.7,56.2 C21.1,56.2 21.2,42 21.2,41.9 C21.2,41.5 21.5,41.2 21.9,41.2 L21.9,41.2 C22.3,41.2 22.6,41.5 22.6,41.9 C22.7,42 22.6,57.6 11.7,57.6 Z" id="Path" fill="#6AC5F0"></path><path d="M11.7,22.5 C11.3,22.5 11,22.2 11,21.8 L11,1.7 C11,1.3 11.3,1 11.7,1 C12.1,1 12.4,1.3 12.4,1.7 L12.4,21.8 C12.5,22.2 12.1,22.5 11.7,22.5 Z" id="Path" fill="#BBDECF"></path><path d="M22,77.7 C6,77.7 5.9,62.1 5.9,61.9 C5.9,61.5 6.2,61.2 6.6,61.2 C6.6,61.2 6.6,61.2 6.6,61.2 C7,61.2 7.3,61.5 7.3,61.9 C7.3,62.5 7.5,76.2 22,76.2 C22.4,76.2 22.7,76.5 22.7,76.9 C22.7,77.4 22.4,77.7 22,77.7 Z" id="Path" fill="#8871B1"></path><path d="M27.1,72.7 C26.7,72.7 26.4,72.4 26.4,72 L26.4,51.9 C26.4,51.5 26.7,51.2 27.1,51.2 C27.5,51.2 27.8,51.5 27.8,51.9 L27.8,72 C27.9,72.4 27.5,72.7 27.1,72.7 Z" id="Path" fill="#FFE900"></path><path d="M16.9,67.7 C16.5,67.7 16.2,67.4 16.2,67 C16.2,66.6 16.5,66.3 16.9,66.3 C21.2,66.3 24.6,65 27,62.3 C32.2,56.7 31.6,47.1 31.6,47 C31.6,46.6 31.9,46.2 32.3,46.2 C32.7,46.2 33.1,46.5 33.1,46.9 C33.1,47.3 33.8,57.3 28.2,63.3 C25.3,66.2 21.5,67.7 16.9,67.7 Z" id="Path" fill="#F5B5D2"></path><path d="M32.2,22.5 C32,22.5 31.8,22.4 31.7,22.3 L16.3,7.2 C16,6.9 16,6.4 16.3,6.2 C16.6,5.9 17.1,5.9 17.3,6.2 L32.7,21.3 C33,21.6 33,22.1 32.7,22.3 C32.6,22.4 32.4,22.5 32.2,22.5 Z" id="Path" fill="#3FB498"></path><path d="M27.1,87.8 C26.7,87.8 26.4,87.5 26.4,87.1 C26.4,86.7 26.4,78.4 30.8,74 C32.6,72.2 34.8,71.3 37.4,71.3 C37.8,71.3 38.1,71.6 38.1,72 C38.1,72.4 37.8,72.7 37.4,72.7 C35.2,72.7 33.3,73.5 31.8,74.9 C27.8,78.9 27.8,86.9 27.8,87 C27.9,87.4 27.5,87.7 27.1,87.8 C27.1,87.8 27.1,87.8 27.1,87.8 Z" id="Path" fill="#3FB498"></path><path d="M6.6,77.7 C6.3,77.7 6,77.5 5.9,77.2 L0.8,62.1 C0.7,61.7 0.9,61.3 1.3,61.2 C1.7,61.1 2.1,61.3 2.2,61.7 L7.3,76.8 C7.4,77.2 7.2,77.6 6.8,77.7 C6.7,77.7 6.7,77.7 6.6,77.7 Z" id="Path" fill="#1961AC"></path><path d="M27.1,47.6 C26.7,47.6 26.4,47.3 26.4,46.9 L26.4,26.8 C26.4,26.4 26.7,26.1 27.1,26.1 C27.5,26.1 27.8,26.4 27.8,26.8 L27.8,46.9 C27.9,47.3 27.5,47.6 27.1,47.6 Z" id="Path" fill="#482683"></path><path d="M32.2,42.6 C31.8,42.6 31.5,42.3 31.5,41.9 L31.5,26.8 C31.5,26.4 31.8,26.1 32.2,26.1 C32.6,26.1 32.9,26.4 32.9,26.8 L32.9,41.9 C33,42.2 32.7,42.6 32.2,42.6 Z" id="Path" fill="#3FB498"></path><path d="M37.4,57.6 C37,57.6 36.7,57.3 36.7,56.9 L36.7,26.8 C36.7,26.4 37,26.1 37.4,26.1 C37.8,26.1 38.1,26.4 38.1,26.8 L38.1,56.9 C38.1,57.3 37.8,57.6 37.4,57.6 Z" id="Path" fill="#F9B000"></path><path d="M16.9,47.6 C16.5,47.6 16.2,47.3 16.2,46.9 L16.2,26.8 C16.2,26.4 16.5,26.1 16.9,26.1 C17.3,26.1 17.6,26.4 17.6,26.8 L17.6,46.9 C17.6,47.3 17.3,47.6 16.9,47.6 Z" id="Path" fill="#F5B5D2"></path><path d="M16.9,72.7 C16.5,72.7 16.2,72.4 16.2,72 L16.2,62 C16.2,61.6 16.5,61.3 16.9,61.3 C17.3,61.3 17.6,61.6 17.6,62 L17.6,72 C17.6,72.4 17.3,72.7 16.9,72.7 Z" id="Path" fill="#3FB498"></path><path d="M6.6,17.5 C6.2,17.5 5.9,17.2 5.9,16.8 L5.9,1.7 C5.9,1.3 6.2,1 6.6,1 C7,1 7.3,1.3 7.3,1.7 L7.3,16.8 C7.3,17.1 7,17.5 6.6,17.5 Z" id="Path" fill="#D6C1DF"></path><path d="M32.2,17.5 C31.8,17.5 31.5,17.2 31.5,16.8 L31.5,1.7 C31.5,1.3 31.8,1 32.2,1 C32.6,1 32.9,1.3 32.9,1.7 L32.9,16.8 C33,17.1 32.7,17.5 32.2,17.5 Z" id="Path" fill="#BCDFF7"></path><path d="M32.2,87.8 C31.8,87.8 31.5,87.5 31.5,87.1 L31.5,67 C31.5,66.6 31.8,66.3 32.2,66.3 C32.6,66.3 32.9,66.6 32.9,67 L32.9,87 C33,87.4 32.7,87.8 32.2,87.8 Z" id="Path" fill="#FCE5F1"></path><path d="M37.4,92.8 C37,92.8 36.7,92.5 36.7,92.1 L36.7,77 C36.7,76.6 37,76.3 37.4,76.3 C37.8,76.3 38.1,76.6 38.1,77 L38.1,92 C38.1,92.4 37.8,92.8 37.4,92.8 Z" id="Path" fill="#1961AC"></path><path d="M37.4,17.5 C37,17.5 36.7,17.2 36.7,16.8 L36.7,6.8 C36.7,6.4 37,6.1 37.4,6.1 C37.8,6.1 38.1,6.4 38.1,6.8 L38.1,16.8 C38.1,17.1 37.8,17.5 37.4,17.5 Z" id="Path" fill="#482683"></path><path d="M11.7,27.5 C11.5,27.5 11.2,27.4 11.1,27.2 L0.8,12.1 C0.6,11.8 0.7,11.3 1,11.1 C1.3,10.9 1.8,11 2,11.3 L12.3,26.4 C12.5,26.7 12.4,27.2 12.1,27.4 C12,27.5 11.9,27.5 11.7,27.5 Z" id="Path" fill="#482683"></path><path d="M11.7,62.7 C11.3,62.7 11,62.4 11,62 L11,52 C11,51.6 11.3,51.3 11.7,51.3 C12.1,51.3 12.4,51.6 12.4,52 L12.4,62 C12.5,62.3 12.1,62.7 11.7,62.7 Z" id="Path" fill="#BBDECF"></path><path d="M11.7,77.7 C11.3,77.7 11,77.4 11,77 L11,67 C11,66.6 11.3,66.3 11.7,66.3 C12.1,66.3 12.4,66.6 12.4,67 L12.4,77 C12.5,77.4 12.1,77.7 11.7,77.7 Z" id="Path" fill="#FCE5F1"></path><path d="M22,17.5 C21.6,17.5 21.3,17.2 21.3,16.8 L21.3,1.7 C21.3,1.3 21.6,1 22,1 C22.4,1 22.7,1.3 22.7,1.7 L22.7,16.8 C22.7,17.1 22.4,17.5 22,17.5 Z" id="Path" fill="#FCE5F1"></path><path d="M22,52.6 C21.6,52.6 21.3,52.3 21.3,51.9 L21.3,31.8 C21.3,31.4 21.6,31.1 22,31.1 C22.4,31.1 22.7,31.4 22.7,31.8 L22.7,51.9 C22.7,52.3 22.4,52.6 22,52.6 Z" id="Path" fill="#1961AC"></path><path d="M1.5,32.5 C1.1,32.5 0.8,32.2 0.8,31.8 L0.8,16.7 C0.8,16.3 1.1,16 1.5,16 C1.9,16 2.2,16.3 2.2,16.7 L2.2,31.8 C2.2,32.2 1.9,32.5 1.5,32.5 Z" id="Path" fill="#F5B5D2"></path><path d="M1.5,72.7 C1.1,72.7 0.8,72.4 0.8,72 L0.8,56.9 C0.8,56.5 1.1,56.2 1.5,56.2 C1.9,56.2 2.2,56.5 2.2,56.9 L2.2,72 C2.2,72.4 1.9,72.7 1.5,72.7 Z" id="Path" fill="#F9B000"></path><path d="M22,87.8 C21.6,87.8 21.3,87.5 21.3,87.1 L21.3,72 C21.3,71.6 21.6,71.3 22,71.3 C22.4,71.3 22.7,71.6 22.7,72 L22.7,87 C22.7,87.4 22.4,87.8 22,87.8 Z" id="Path" fill="#F9B000"></path><path d="M27.1,77.7 C26.9,77.7 26.7,77.6 26.6,77.5 C26.3,77.2 26.3,76.7 26.6,76.5 L36.9,66.5 C37.2,66.2 37.7,66.2 37.9,66.5 C38.2,66.8 38.2,67.3 37.9,67.5 L27.6,77.5 C27.5,77.6 27.3,77.7 27.1,77.7 Z" id="Path" fill="#BCDFF7"></path><path d="M6.6,72.7 C6.2,72.7 5.9,72.4 5.9,72 L5.9,56.9 C5.9,56.5 6.2,56.2 6.6,56.2 C7,56.2 7.3,56.5 7.3,56.9 L7.3,72 C7.3,72.4 7,72.7 6.6,72.7 Z" id="Path" fill="#FFE900"></path></g><rect id="Rectangle" fill="#3FB498" x="0" y="17.6" width="51.9" height="133.4"></rect><path d="M112.5,77.7 C112.5,78.9 111.5,79.8 110.4,79.8 C109.2,79.8 108.3,78.8 108.3,77.7 C108.3,76.5 109.3,75.6 110.4,75.6 C111.6,75.6 112.5,76.5 112.5,77.7 Z" id="Path" fill="#575756"></path></g><path d="M255.5,171.2 C255.5,171.2 280,175 280.4,185.2 C245.5,185.2 242.3,185.2 242.3,185.2 L240.6,170.4 L255.5,171.2 Z" id="Path" fill="#575756" fill-rule="nonzero"></path><path d="M194.9,128.6 L252.8,113.4 C258.5,111.6 264.6,114.7 266.4,120.4 L266.8,121.6 C267.1,122.5 267.2,123.3 267.3,124.2 C267.3,124.5 267.3,124.8 267.3,125.2 C267.3,125.5 267.3,125.8 267.3,126.1 C267.3,126.3 267.3,126.4 267.3,126.6 L261.2,172.5 L238.6,172.5 L242.4,141.9 L202.8,157 C197.1,158.8 189.2,152.7 187.4,147 L187,145.8 C185.2,140.1 189.3,130.4 194.9,128.6 Z" id="Path" fill="#DADADA" fill-rule="nonzero"></path><g id="Group" transform="translate(114.000000, 117.000000)" fill-rule="nonzero"><rect id="Rectangle" fill="#FFE800" x="0.1" y="9.1" width="60.1" height="35.4"></rect><path d="M46.4,9.1 C46.4,4.1 42.3,0 37.3,0 L23,0 C18,0 13.9,4.1 13.9,9.1 L0.1,9.1 L0.1,24.8 L60.2,24.8 L60.2,9.1 L46.4,9.1 Z M22.9,4.3 L37.2,4.3 C39.8,4.3 42,6.4 42,9.1 L18.1,9.1 C18.1,6.5 20.3,4.3 22.9,4.3 Z" id="Shape" fill="#F8AF00"></path><path d="M30.1,27.6 L30.1,27.6 C29.4,27.6 28.8,27 28.8,26.3 L28.8,23.3 C28.8,22.6 29.4,22 30.1,22 L30.1,22 C30.8,22 31.4,22.6 31.4,23.3 L31.4,26.3 C31.4,27.1 30.8,27.6 30.1,27.6 Z" id="Path" fill="#575756"></path></g><path d="M296.3,109.2 L310.3,102.3 C313.7,100.6 315.1,96.4 313.4,93 L313.4,93 C311.7,89.6 309.1,91.3 305.7,93 L291.7,99.9 C288.3,101.6 285.3,102.7 287,106.1 L287,106.1 C288.7,109.5 292.9,110.9 296.3,109.2 Z" id="Path" fill="#181716" fill-rule="nonzero"></path><polygon id="Path" fill="#FFFFFF" fill-rule="nonzero" points="239.2 163.4 261.9 163.4 262.4 159.1 239.2 159.1"></polygon><path d="M188.4,157 C188.4,157 180.6,151.9 181.9,138 C181.9,138 186.7,87.8 213.6,56.7 L229.1,65.7 C230.2,67.8 231,70.1 231.8,72.3 C241.3,87.4 256.7,100.7 289.7,103.1 L289.7,115.9 C289.7,115.9 256.7,118 232.5,103.8 C228.8,124.2 225.6,148.3 225.6,148.3 L247.7,161.9 C247.7,161.9 258.8,168.4 256.1,177.5 C253.7,185.6 246.9,186 246.9,186 L163.9,176.1 L166.7,155.2 L188.4,157 Z" id="Path" fill="#DADADA" fill-rule="nonzero"></path><polygon id="Path" fill="#FFFFFF" fill-rule="nonzero" points="180.3 178 182.7 156.5 178.1 156.1 175.8 177.5"></polygon><path d="M289.7,103.1 C289.7,103.1 294.1,101.9 298.4,99.6 C302.7,97.3 303.4,100.3 301.3,102.4 C303.8,102.4 307,102.5 307,102.5 C307,102.5 311,102.2 311,105 C311,108.1 307.6,116 289.8,116 L289.8,103.1 L289.7,103.1 Z" id="Path" fill="#C89871" fill-rule="nonzero"></path><path d="M166.8,155.1 L150.8,152.8 L149.7,161.8 C148.9,168.3 148.3,174.9 151.4,180.7 L152.9,183.5 C153.7,185 155.2,185.9 156.9,185.9 L169.3,185.9 C169.3,185.9 170.4,181.7 164.1,176 C165.7,162.7 166.8,155.1 166.8,155.1 Z" id="Path" fill="#575756" fill-rule="nonzero"></path><path d="M231.8,72.2 C231.8,72.2 227.8,67.2 219.7,69.7 C208.2,73.3 207.3,90.3 213.6,98.2 C222,108.7 232.5,103.7 232.5,103.7 L228.4,135.2 C228.4,135.2 209.8,140.3 182.2,134.5 C184.8,109.8 191.6,80.9 212,58.3 C221.8,63.5 230.1,67.8 230.1,67.8 C230.1,67.8 231.2,70.2 231.8,72.2 Z" id="Path" fill="#EF7D00" fill-rule="nonzero"></path><g id="Group" transform="translate(51.000000, 160.000000)" fill-rule="nonzero"><path d="M92.7,33.7 C91.5,40.3 86.8,45.9 82,50.1 C79.1,52.6 76.2,54.5 74,55.8 C72.9,56.5 72,57 71.4,57.3 C71.1,57.5 70.8,57.6 70.7,57.7 L70.5,57.8 C69.8,58.2 69.5,59 69.8,59.7 C70.2,60.4 71,60.7 71.7,60.4 C71.8,60.4 77.8,57.5 83.9,52.2 C89,47.8 94.1,41.8 95.6,34.2 C95.8,33.4 95.2,32.7 94.4,32.5 C93.6,32.4 92.9,32.9 92.7,33.7 L92.7,33.7 Z" id="Path" fill="#007836"></path><path d="M100.5,35.5 C97.8,40.3 94.1,44.3 90.3,47.5 C86.6,50.7 82.8,53.1 80,54.8 C78.6,55.6 77.4,56.2 76.6,56.6 C76.2,56.8 75.9,56.9 75.7,57 L75.4,57.2 C74.6,57.5 74.3,58.4 74.6,59.1 C74.9,59.8 75.8,60.2 76.5,59.9 C76.6,59.8 84.4,56.5 92.2,49.8 C96.1,46.4 100.1,42.2 103,37 C103.4,36.3 103.2,35.4 102.5,35 C101.8,34.6 100.9,34.8 100.5,35.5 L100.5,35.5 Z" id="Path" fill="#F193BD"></path><path d="M111.7,48.9 C109,48.4 105.7,48.8 102,49.5 C91.3,51.6 78.3,57.3 78.2,57.3 C77.5,57.6 77.1,58.5 77.5,59.2 C77.8,59.9 78.7,60.3 79.4,60 C79.4,60 80.8,59.4 83.1,58.5 C86.5,57.1 91.9,55.1 97.3,53.6 C102.6,52.1 108.1,51.1 111.1,51.7 C111.9,51.9 112.6,51.3 112.8,50.5 C113,49.8 112.5,49.1 111.7,48.9 L111.7,48.9 Z" id="Path" fill="#FFE800"></path><path d="M109.6,54.6 C104,53.1 96.3,53.8 89.9,54.9 C83.5,56 78.5,57.4 78.4,57.3 C77.6,57.5 77.2,58.4 77.4,59.1 C77.6,59.9 78.4,60.3 79.2,60.1 C79.2,60.1 79.5,60 80.1,59.9 C82.1,59.4 87.1,58.2 92.8,57.4 C98.5,56.6 104.7,56.3 108.9,57.4 C109.7,57.6 110.5,57.1 110.7,56.4 C110.8,55.6 110.4,54.8 109.6,54.6 L109.6,54.6 Z" id="Path" fill="#EF7D00"></path><path d="M103.6,67.5 C102.8,65.6 101.8,64 100.7,62.7 C98.6,60.3 96,58.8 93.5,58.2 C89.6,57.1 85.8,57.7 82.9,58.4 C80,59.1 78,60.1 78,60.1 C77.3,60.5 77,61.3 77.3,62 C77.7,62.7 78.6,63 79.3,62.6 L79.4,62.6 C80.1,62.3 83.4,60.8 87.2,60.5 C91.1,60.1 95.3,60.8 98.5,64.5 C99.4,65.6 100.2,66.9 101,68.5 C101.3,69.2 102.2,69.6 102.9,69.3 C103.5,69.1 103.9,68.2 103.6,67.5 L103.6,67.5 Z" id="Path" fill="#6AC5F0"></path><path d="M75.1,56.4 C59.3,60.7 41.1,60.8 25.9,54.3 C15.8,49.9 5.2,41 6,28.9 C6.8,16.1 19.2,9.4 30.5,7.2 C42.4,4.9 61.7,5.9 68.6,17.7 C76.3,30.9 57.3,37.8 47.5,38.5 C41,38.9 33.9,38.3 28,35.2 C25.1,33.6 20.6,30.5 21.2,26.5 C21.8,22.4 28.4,20.4 31.7,19.5 C38.9,17.4 47.2,17.2 53.9,20.8 C54.9,21.3 56.1,22.8 57,23.1 C57.5,23.3 57.5,23.1 57.6,23 C57.3,23.7 56.4,24.2 56.1,24.4 C52.9,26.6 48.9,27.4 45,27.5 C40.9,27.6 36.8,26.9 32.8,25.9 C31.6,25.6 29.1,24.1 28,24.2 C29.3,24.1 28.2,28.1 28,28 C27.8,27.9 27.6,28 28.2,28 C28.5,28 28.8,27.8 29.1,27.8 C30.6,27.5 32.1,27.4 33.6,27.2 C39.5,26.7 45.4,26.6 51.3,26.7 C55.3,26.7 55.3,20.6 51.3,20.5 C44.3,20.4 37.2,20.5 30.3,21.4 C27.4,21.8 22.2,22.4 22.8,26.5 C23.4,31 31.7,32 35,32.7 C41.9,34 49.4,34.3 56,31.6 C58.4,30.6 61.4,29 62.8,26.7 C67.2,19.3 55.5,14.3 50.3,13 C41.6,10.8 31.9,12.3 23.9,16.2 C18.9,18.6 14.6,22.7 15.3,28.6 C16,34.3 20.9,38.7 25.8,41.1 C33.6,44.9 42.8,45.7 51.4,44.5 C59.2,43.5 67.7,40.6 72.8,34.2 C77.1,28.7 77.7,21.3 74.4,15.2 C70.6,8.2 62.6,4.1 55.2,2.1 C39.6,-1.9 18.9,0.2 7.3,12.5 C-2.9,23.3 -1.4,39.2 8.4,49.7 C21.4,63.6 43.3,67 61.4,65.4 C66.7,64.9 71.9,64 77.1,62.6 C80.6,61.3 79,55.3 75.1,56.4 L75.1,56.4 Z" id="Path" fill="#9D9D9C"></path></g><g id="Group" transform="translate(211.000000, 9.000000)" fill-rule="nonzero"><g id="Path"><path d="M40.7,39.2 L43.3,39.2 C44.6,39.2 45.7,38.1 45.5,36.7 L44.4,26.6 C47.8,13.5 37.7,4.6 25.3,2.8 C14.1,1.1 4.8,5.9 3.3,21.7 C2.6,29 3.1,35.9 5.3,41.5 C5.8,42.8 5.7,44.2 5,45.3 L2.1,50 L16.6,58.8 L19.8,52.5 C20.1,52 20.7,51.9 21.3,52 C33,54.7 37.8,44.2 37.8,44.2 L40.7,39.2 Z" fill="#C89871"></path><path d="M33.9,28.7 C33.4,29.7 33.8,31 34.8,31.5 C35.8,32 37.1,31.6 37.6,30.6 C38.1,29.6 37.7,28.3 36.7,27.8 C35.7,27.3 34.5,27.7 33.9,28.7 Z" fill="#181716"></path><polygon fill="#181716" points="0.8 49.3 4.5 45.4 18.7 54.8 19.9 60.8"></polygon><path d="M43.5,5.5 C43.5,5.5 39.4,7.3 28.3,2.2 C17.4,-2.8 11.5,2 4.7,11.6 C-2.4,21.7 0.6,34 5.6,42.5 L9.3,32.9 C9.8,31.7 10.1,30.4 9.9,29.2 C9.4,26.6 9.1,22 12.3,20.7 C15,19.6 16.8,22.2 17.7,24.2 C18.2,25.3 18.1,26.5 17.8,27.7 C16.4,32.6 19.2,31 19.5,30.5 L20.7,22.3 C21.4,20.5 19.7,5 34,10.3 C34,10.3 44.7,14.2 43.5,5.5 Z" fill="#482E26"></path><polygon fill="#181716" points="41 25.4 40 27.2 32.4 25.3 33.1 23.8"></polygon></g><path d="M19.6,30.4 C19.6,30.4 19.5,32.9 19.5,33.8 C19.6,36.9 20.9,42.9 31.4,51 C31.4,51 28.7,53.4 25.4,52.5 C17.8,50.6 17.3,31.7 17.6,30.3" id="Path" fill="#482E26"></path><path d="M38.4,43.4 C38.4,43.4 37.6,43 32.5,40.3 C32.5,40.3 33.3,41.9 37.9,44.3 C37.9,44.4 38.4,43.4 38.4,43.4 Z" id="Path" fill="#6E473F"></path><polygon id="Path" fill="#482E26" points="39.8 40.9 38.9 42.5 32.7 39.5"></polygon></g><path d="M264.4,32.8 L214.3,20.2 C214.3,20.2 219,-4.4 241.7,1.9 C264.4,8.2 259.5,27 259.5,27 L264.4,32.8 Z" id="Path" fill="#EF7D00" fill-rule="nonzero"></path><g id="Group" transform="translate(404.000000, 124.000000)"><g fill-rule="nonzero" id="Path"><polygon fill="#EF7D00" points="34.8 57.4 32.8 44.8 9.5 44.8 7.4 57.4 0.3 57.4 0.3 62.6 42 62.6 42 57.4"></polygon><polygon fill="#EF7D00" points="25.4 0 16.9 0 14.4 15.3 27.9 15.3"></polygon><polygon fill="#FFFFFF" points="27.9 15.3 14.4 15.3 9.5 44.8 32.8 44.8"></polygon></g><polygon id="Path" fill="#EF7D00" points="12.7 25 29.5 25 31.2 35.1 11.1 35.1"></polygon></g><g id="Group" transform="translate(0.000000, 124.000000)"><g fill-rule="nonzero" id="Path"><polygon fill="#EF7D00" points="35.4 57.4 33.3 44.8 10 44.8 7.9 57.4 0.8 57.4 0.8 62.6 42.5 62.6 42.5 57.4"></polygon><polygon fill="#EF7D00" points="25.9 0 17.4 0 14.9 15.3 28.4 15.3"></polygon><polygon fill="#FFFFFF" points="28.4 15.3 14.9 15.3 10 44.8 33.3 44.8"></polygon></g><polygon id="Path" fill="#EF7D00" points="13.3 25 30 25 31.7 35.1 11.6 35.1"></polygon></g></g></g></svg>